HIERARCHY
ROOT Root
{
  OFFSET 0.0 0.0 0.0
  CHANNELS 6 Xposition Yposition Zposition Zrotation Yrotation Xrotation
  JOINT Hips
  {
    OFFSET 0.0 100.0 0.0
    CHANNELS 6 Xposition Yposition Zposition Zrotation Yrotation Xrotation
    JOINT Spine1
    {
      OFFSET 5.003913 -0.037094 -0.013727
      CHANNELS 3 Zrotation Yrotation Xrotation
      JOINT Spine2
      {
        OFFSET 7.125363 -1e-06 0.0
        CHANNELS 3 Zrotation Yrotation Xrotation
        JOINT Chest
        {
          OFFSET 7.594027 1e-06 0.0
          CHANNELS 3 Zrotation Yrotation Xrotation
          JOINT Neck1
          {
            OFFSET 26.313086 -0.460272 -0.181672
            CHANNELS 3 Zrotation Yrotation Xrotation
            JOINT Neck2
            {
              OFFSET 8.045911 0.0 0.0
              CHANNELS 3 Zrotation Yrotation Xrotation
              JOINT Head
              {
                OFFSET 6.432774 0.0 0.0
                CHANNELS 3 Zrotation Yrotation Xrotation
                JOINT HeadEnd
                {
                  OFFSET 16.169773 0.06451 0.00362
                  CHANNELS 3 Zrotation Yrotation Xrotation
                }
                JOINT Jaw
                {
                  OFFSET 0.108741 3.12938 0.002639
                  CHANNELS 3 Zrotation Yrotation Xrotation
                }
                JOINT LeftEye
                {
                  OFFSET 4.45173 8.166359 3.206392
                  CHANNELS 3 Zrotation Yrotation Xrotation
                }
                JOINT RightEye
                {
                  OFFSET 4.436895 8.135758 -3.222429
                  CHANNELS 3 Zrotation Yrotation Xrotation
                }
              }
            }
          }
          JOINT LeftShoulder
          {
            OFFSET 23.218927 5.195579 1.621656
            CHANNELS 3 Zrotation Yrotation Xrotation
            JOINT LeftArm
            {
              OFFSET 15.902118 2e-06 -2e-06
              CHANNELS 3 Zrotation Yrotation Xrotation
              JOINT LeftForeArm
              {
                OFFSET 28.739307 0.0 -1e-06
                CHANNELS 3 Zrotation Yrotation Xrotation
                JOINT LeftHand
                {
                  OFFSET 27.093981 -4e-06 0.0
                  CHANNELS 3 Zrotation Yrotation Xrotation
                  JOINT LeftHandThumb1
                  {
                    OFFSET 2.276781 3.380274 0.83384
                    CHANNELS 3 Zrotation Yrotation Xrotation
                    JOINT LeftHandThumb2
                    {
                      OFFSET 4.705309 -1e-06 -1e-06
                      CHANNELS 3 Zrotation Yrotation Xrotation
                      JOINT LeftHandThumb3
                      {
                        OFFSET 2.798515 0.0 3e-06
                        CHANNELS 3 Zrotation Yrotation Xrotation
                        JOINT LeftHandThumbEnd
                        {
                          OFFSET 3.180793 4e-06 -4e-06
                          CHANNELS 3 Zrotation Yrotation Xrotation
                        }
                      }
                    }
                  }
                  JOINT LeftHandIndex1
                  {
                    OFFSET 3.247786 2.352677 0.137192
                    CHANNELS 3 Zrotation Yrotation Xrotation
                    JOINT LeftHandIndex2
                    {
                      OFFSET 6.367095 1e-06 0.0
                      CHANNELS 3 Zrotation Yrotation Xrotation
                      JOINT LeftHandIndex3
                      {
                        OFFSET 3.662364 0.0 0.0
                        CHANNELS 3 Zrotation Yrotation Xrotation
                        JOINT LeftHandIndex4
                        {
                          OFFSET 2.329242 4e-06 -4e-06
                          CHANNELS 3 Zrotation Yrotation Xrotation
                          JOINT LeftHandIndexEnd
                          {
                            OFFSET 2.767823 1e-06 0.0
                            CHANNELS 3 Zrotation Yrotation Xrotation
                          }
                        }
                      }
                    }
                  }
                  JOINT LeftHandMiddle1
                  {
                    OFFSET 3.163612 0.945023 -0.406112
                    CHANNELS 3 Zrotation Yrotation Xrotation
                    JOINT LeftHandMiddle2
                    {
                      OFFSET 6.276789 3e-06 0.0
                      CHANNELS 3 Zrotation Yrotation Xrotation
                      JOINT LeftHandMiddle3
                      {
                        OFFSET 4.35652 -1e-06 4e-06
                        CHANNELS 3 Zrotation Yrotation Xrotation
                        JOINT LeftHandMiddle4
                        {
                          OFFSET 2.996877 0.0 8e-06
                          CHANNELS 3 Zrotation Yrotation Xrotation
                          JOINT LeftHandMiddleEnd
                          {
                            OFFSET 2.323256 3e-06 -4e-06
                            CHANNELS 3 Zrotation Yrotation Xrotation
                          }
                        }
                      }
                    }
                  }
                  JOINT LeftHandRing1
                  {
                    OFFSET 2.882606 -0.309162 0.107445
                    CHANNELS 3 Zrotation Yrotation Xrotation
                    JOINT LeftHandRing2
                    {
                      OFFSET 6.033198 0.0 4e-06
                      CHANNELS 3 Zrotation Yrotation Xrotation
                      JOINT LeftHandRing3
                      {
                        OFFSET 4.350578 3e-06 0.0
                        CHANNELS 3 Zrotation Yrotation Xrotation
                        JOINT LeftHandRing4
                        {
                          OFFSET 2.651321 2e-06 -7e-06
                          CHANNELS 3 Zrotation Yrotation Xrotation
                          JOINT LeftHandRingEnd
                          {
                            OFFSET 1.937663 1e-06 -4e-06
                            CHANNELS 3 Zrotation Yrotation Xrotation
                          }
                        }
                      }
                    }
                  }
                  JOINT LeftHandPinky1
                  {
                    OFFSET 2.865315 -1.525436 0.575687
                    CHANNELS 3 Zrotation Yrotation Xrotation
                    JOINT LeftHandPinky2
                    {
                      OFFSET 5.54936 1e-06 -8e-06
                      CHANNELS 3 Zrotation Yrotation Xrotation
                      JOINT LeftHandPinky3
                      {
                        OFFSET 3.070974 0.0 -4e-06
                        CHANNELS 3 Zrotation Yrotation Xrotation
                        JOINT LeftHandPinky4
                        {
                          OFFSET 1.549672 1e-06 0.0
                          CHANNELS 3 Zrotation Yrotation Xrotation
                          JOINT LeftHandPinkyEnd
                          {
                            OFFSET 1.952123 0.0 0.0
                            CHANNELS 3 Zrotation Yrotation Xrotation
                          }
                        }
                      }
                    }
                  }
                }
              }
            }
          }
          JOINT RightShoulder
          {
            OFFSET 23.161716 5.296122 -1.380114
            CHANNELS 3 Zrotation Yrotation Xrotation
            JOINT RightArm
            {
              OFFSET -16.027195 -2e-06 1.1e-05
              CHANNELS 3 Zrotation Yrotation Xrotation
              JOINT RightForeArm
              {
                OFFSET -28.736639 4e-06 2e-06
                CHANNELS 3 Zrotation Yrotation Xrotation
                JOINT RightHand
                {
                  OFFSET -27.133619 6e-06 0.0
                  CHANNELS 3 Zrotation Yrotation Xrotation
                  JOINT RightHandThumb1
                  {
                    OFFSET -2.274328 -3.351035 -0.83067
                    CHANNELS 3 Zrotation Yrotation Xrotation
                    JOINT RightHandThumb2
                    {
                      OFFSET -4.703594 -3e-06 2e-06
                      CHANNELS 3 Zrotation Yrotation Xrotation
                      JOINT RightHandThumb3
                      {
                        OFFSET -2.794935 -4e-06 -3e-06
                        CHANNELS 3 Zrotation Yrotation Xrotation
                        JOINT RightHandThumbEnd
                        {
                          OFFSET -3.183852 4e-06 1e-06
                          CHANNELS 3 Zrotation Yrotation Xrotation
                        }
                      }
                    }
                  }
                  JOINT RightHandIndex1
                  {
                    OFFSET -3.253496 -2.33755 -0.127667
                    CHANNELS 3 Zrotation Yrotation Xrotation
                    JOINT RightHandIndex2
                    {
                      OFFSET -6.344434 0.0 0.0
                      CHANNELS 3 Zrotation Yrotation Xrotation
                      JOINT RightHandIndex3
                      {
                        OFFSET -3.654871 0.0 -8e-06
                        CHANNELS 3 Zrotation Yrotation Xrotation
                        JOINT RightHandIndex4
                        {
                          OFFSET -2.327586 -1e-06 0.0
                          CHANNELS 3 Zrotation Yrotation Xrotation
                          JOINT RightHandIndexEnd
                          {
                            OFFSET -2.770001 3e-06 8e-06
                            CHANNELS 3 Zrotation Yrotation Xrotation
                          }
                        }
                      }
                    }
                  }
                  JOINT RightHandMiddle1
                  {
                    OFFSET -3.168223 -0.944764 0.411762
                    CHANNELS 3 Zrotation Yrotation Xrotation
                    JOINT RightHandMiddle2
                    {
                      OFFSET -6.266691 -1e-06 -4e-06
                      CHANNELS 3 Zrotation Yrotation Xrotation
                      JOINT RightHandMiddle3
                      {
                        OFFSET -4.348901 0.0 0.0
                        CHANNELS 3 Zrotation Yrotation Xrotation
                        JOINT RightHandMiddle4
                        {
                          OFFSET -3.00024 2e-06 -4e-06
                          CHANNELS 3 Zrotation Yrotation Xrotation
                          JOINT RightHandMiddleEnd
                          {
                            OFFSET -2.321477 -4e-06 -4e-06
                            CHANNELS 3 Zrotation Yrotation Xrotation
                          }
                        }
                      }
                    }
                  }
                  JOINT RightHandRing1
                  {
                    OFFSET -2.885654 0.293261 -0.119232
                    CHANNELS 3 Zrotation Yrotation Xrotation
                    JOINT RightHandRing2
                    {
                      OFFSET -6.032835 -1e-06 -4e-06
                      CHANNELS 3 Zrotation Yrotation Xrotation
                      JOINT RightHandRing3
                      {
                        OFFSET -4.33881 0.0 -4e-06
                        CHANNELS 3 Zrotation Yrotation Xrotation
                        JOINT RightHandRing4
                        {
                          OFFSET -2.654903 -4e-06 -4e-06
                          CHANNELS 3 Zrotation Yrotation Xrotation
                          JOINT RightHandRingEnd
                          {
                            OFFSET -1.935122 0.0 4e-06
                            CHANNELS 3 Zrotation Yrotation Xrotation
                          }
                        }
                      }
                    }
                  }
                  JOINT RightHandPinky1
                  {
                    OFFSET -2.866241 1.503904 -0.60527
                    CHANNELS 3 Zrotation Yrotation Xrotation
                    JOINT RightHandPinky2
                    {
                      OFFSET -5.553177 -2e-06 0.0
                      CHANNELS 3 Zrotation Yrotation Xrotation
                      JOINT RightHandPinky3
                      {
                        OFFSET -3.062664 -1e-06 -4e-06
                        CHANNELS 3 Zrotation Yrotation Xrotation
                        JOINT RightHandPinky4
                        {
                          OFFSET -1.546529 2e-06 4e-06
                          CHANNELS 3 Zrotation Yrotation Xrotation
                          JOINT RightHandPinkyEnd
                          {
                            OFFSET -1.952341 0.0 -4e-06
                            CHANNELS 3 Zrotation Yrotation Xrotation
                          }
                        }
                      }
                    }
                  }
                }
              }
            }
          }
        }
      }
    }
    JOINT LeftLeg
    {
      OFFSET -8.443107 2.567604 10.043214
      CHANNELS 3 Zrotation Yrotation Xrotation
      JOINT LeftShin
      {
        OFFSET 43.229198 1e-06 -1e-06
        CHANNELS 3 Zrotation Yrotation Xrotation
        JOINT LeftFoot
        {
          OFFSET 42.298611 1e-06 1e-06
          CHANNELS 3 Zrotation Yrotation Xrotation
          JOINT LeftToeBase
          {
            OFFSET 14.165858 1e-06 0.0
            CHANNELS 3 Zrotation Yrotation Xrotation
            JOINT LeftToeEnd
            {
              OFFSET 6.7141 -0.234461 0.0
              CHANNELS 3 Zrotation Yrotation Xrotation
            }
          }
        }
      }
    }
    JOINT RightLeg
    {
      OFFSET -8.303923 2.592729 -10.047278
      CHANNELS 3 Zrotation Yrotation Xrotation
      JOINT RightShin
      {
        OFFSET -43.369682 0.0 1e-06
        CHANNELS 3 Zrotation Yrotation Xrotation
        JOINT RightFoot
        {
          OFFSET -42.260784 4e-06 2e-06
          CHANNELS 3 Zrotation Yrotation Xrotation
          JOINT RightToeBase
          {
            OFFSET -14.222245 -2e-06 -1e-06
            CHANNELS 3 Zrotation Yrotation Xrotation
            JOINT RightToeEnd
            {
              OFFSET -6.660062 0.232574 -2e-06
              CHANNELS 3 Zrotation Yrotation Xrotation
            }
          }
        }
      }
    }
  }
}
MOTION
Frames: 4
Frame Time: 0.03333333333333333
0.0 0.0 0.0 0.0 -0.0 0.0 -0.955599 99.068016 3.825832 90.232491 1.482663 90.114822 -3.985855 1.305658 0.291798 -12.666002 -0.019067 1.146124 22.848448 -2.259771 -0.664129 24.002487 2.229726 2.294678 -2.698991 -0.880462 -0.168972 -40.678867 -1.395482 -0.244325 6e-06 -0.0 -0.0 0.030503 0.013104 -0.077228 0.051956 -0.024559 -0.090975 0.049068 0.049258 -0.057073 -109.138817 -73.007996 125.290535 30.966208 -64.725258 -2.544946 27.045267 0.258328 0.166007 -0.61316 0.667702 12.80129 17.636631 -26.322729 52.411186 -19.466663 -14.395598 29.410389 -0.0 -8.774822 -1e-06 16.38582 -18.029282 5.973639 -0.609777 -1.795654 -3.889328 -4.80709 -11.046811 -2.937851 4e-06 -20.976019 0.0 -5.019974 -25.033558 -4.031882 5e-06 0.0 2e-06 -10.634535 -5.686972 -3.565588 10.573275 -17.922951 -3.113902 3e-06 -13.821209 2e-06 -0.501777 -31.181505 -4.027016 -10.965271 -59.548054 6.698953 -13.982714 -7.150198 -2.875044 13.772731 -8.401493 -3.218243 0.347732 -34.211552 0.771654 -0.963031 -17.733372 2.62102 0.0 -1e-06 0.0 -17.34642 -20.095221 -4.20178 21.757561 -1.638375 3.866428 2e-06 -6.338825 2e-06 -1.69759 -22.591747 -6.194007 -0.0 -3e-06 -2e-06 59.977291 -74.973076 138.253815 35.424126 -63.759071 -4.988359 30.884409 0.025938 0.088367 2.858717 7.841565 8.590138 22.182117 -20.375896 49.933323 -16.701817 -16.743528 28.476532 -4e-06 -12.690601 -0.0 16.109642 -17.42396 2.652514 -0.105917 -1.513856 -4.27588 -5.039041 -5.612873 -2.953557 6e-06 -11.020526 -1e-06 -6.111297 -15.895334 -3.840472 -0.0 1e-06 0.0 -10.283371 -5.680288 -4.341838 11.028296 -11.302408 -2.372632 -1.384269 -14.238582 -6.320122 -0.625434 -26.9242 -3.827602 -4.286902 -49.717674 -3.399649 -13.708524 -7.363476 -3.72094 18.141148 -14.052742 -3.242674 8e-06 -18.78727 -3e-06 -0.429711 -8.456045 2.555505 -0.0 0.0 1e-06 -15.923536 -20.094484 -5.473586 30.419222 -7.19083 1.735927 1e-06 -8.162929 -2e-06 -1.861899 -22.861479 -6.167946 0.0 -2e-06 -1e-06 -174.064377 -3.872244 -1.400896 10.611506 0.010851 -0.151683 -84.026024 -3.440938 -6.818377 -3.960958 1.38536 2.168507 -0.999999 -0.0 0.0 1.54564 -4.575305 -5.124575 16.580214 -0.050857 0.05528 -84.755783 -5.15943 -7.543458 -3.985556 0.673565 1.685461 -1.000002 -0.0 0.0 
0.0 0.0 0.0 0.0 -0.0 0.0 -0.92992 99.072128 3.884628 90.211998 1.472191 90.178886 -3.99927 1.327143 0.296658 -12.652724 0.016267 1.196751 22.822145 -2.267817 -0.706096 24.067694 2.202976 2.321861 -2.683208 -0.868984 -0.249223 -40.638996 -1.412411 -0.216359 7e-06 0.0 -0.0 0.031083 0.016131 -0.051497 0.068406 -0.026331 -0.063308 0.062425 0.057353 -0.033961 -109.060516 -73.017738 125.223938 30.982897 -64.760406 -2.802979 27.057102 0.18826 0.099984 -0.584039 0.646338 13.033875 17.636627 -26.322733 52.411194 -19.46666 -14.395597 29.410389 -1e-06 -8.774821 -3e-06 16.386333 -18.008827 5.954757 -0.609777 -1.795653 -3.889328 -4.807088 -11.04681 -2.93785 4e-06 -20.976015 1e-06 -5.019969 -25.033556 -4.031883 5e-06 -2e-06 1e-06 -10.634533 -5.68697 -3.565588 10.573272 -17.922951 -3.113901 4e-06 -13.821208 2e-06 -0.501776 -31.181505 -4.027015 -10.937881 -59.497601 6.756989 -13.982714 -7.150198 -2.875041 13.772731 -8.401493 -3.218243 0.347734 -34.211555 0.771654 -0.963029 -17.73337 2.621021 1e-06 2e-06 -2e-06 -17.346416 -20.095217 -4.201783 21.757557 -1.638374 3.866426 2e-06 -6.338824 2e-06 -1.697587 -22.591745 -6.194006 -0.0 -2e-06 -0.0 60.406181 -74.993629 137.840134 35.543587 -63.80418 -5.018281 30.800653 0.042565 0.097574 3.004737 7.827067 8.582191 22.182119 -20.3759 49.933327 -16.701807 -16.743528 28.47653 -3e-06 -12.6906 -2e-06 16.163368 -17.460262 2.64512 -0.10592 -1.513856 -4.275882 -5.039041 -5.612871 -2.953557 5e-06 -11.020521 0.0 -6.111297 -15.89533 -3.84047 -0.0 1e-06 1e-06 -10.283369 -5.680286 -4.341839 11.028291 -11.302404 -2.372631 -1.384269 -14.238578 -6.320122 -0.62544 -26.924187 -3.827599 -4.337511 -49.869034 -3.349499 -13.708526 -7.363475 -3.720941 18.141148 -14.052739 -3.242672 7e-06 -18.787266 -0.0 -0.429712 -8.456043 2.555504 1e-06 -0.0 2e-06 -15.923532 -20.094479 -5.473586 30.41921 -7.190825 1.735926 1e-06 -8.162926 0.0 -1.861902 -22.861465 -6.167939 2e-06 -4e-06 -2e-06 -173.995865 -3.88945 -1.477903 10.506309 0.008806 -0.100831 -84.017731 -3.325934 -6.888324 -3.93043 1.409395 2.183709 -0.999998 -0.0 -0.0 1.669971 -4.538537 -5.044895 16.404444 -0.054762 0.051584 -84.707527 -5.276237 -7.535548 -3.982978 0.654545 1.682942 -1.000002 -0.0 -0.0 
0.0 0.0 0.0 0.0 -0.0 0.0 -0.918877 99.063942 3.943245 90.208435 1.472385 90.2332 -4.010305 1.344474 0.29381 -12.662045 0.036803 1.217366 22.85169 -2.277627 -0.715525 24.121819 2.174403 2.33634 -2.708987 -0.850867 -0.304074 -40.573444 -1.441833 -0.195131 5e-06 -0.0 -0.0 0.030759 0.017401 -0.045995 0.061433 -0.032252 -0.056794 0.058899 0.065552 -0.030455 -109.029907 -73.041817 125.161446 30.883875 -64.811661 -2.935374 27.102936 0.11268 0.035296 -0.636369 0.65114 13.171274 17.636627 -26.322725 52.411186 -19.466663 -14.395596 29.410389 -1e-06 -8.774821 -2e-06 16.408241 -18.041889 5.944573 -0.609776 -1.795654 -3.889325 -4.807087 -11.04681 -2.93785 4e-06 -20.976015 0.0 -5.019969 -25.033552 -4.031882 6e-06 -1e-06 1e-06 -10.634533 -5.68697 -3.565585 10.573274 -17.922951 -3.113901 3e-06 -13.821206 -0.0 -0.501777 -31.181501 -4.027016 -10.940706 -59.47224 6.76114 -13.982712 -7.150198 -2.87504 13.772729 -8.401491 -3.218241 0.347735 -34.211544 0.771652 -0.963028 -17.73337 2.62102 0.0 -1e-06 0.0 -17.346418 -20.095219 -4.201779 21.757557 -1.638374 3.866426 2e-06 -6.338825 3e-06 -1.69759 -22.591743 -6.194005 0.0 -4e-06 -3e-06 60.625622 -75.001305 137.636124 35.572525 -63.817524 -4.987561 30.765207 0.043922 0.089969 3.120585 7.842137 8.540719 22.182117 -20.375895 49.933319 -16.701818 -16.743532 28.47653 -3e-06 -12.690603 -1e-06 16.195898 -17.477871 2.659825 -0.10592 -1.513857 -4.275882 -5.039042 -5.612873 -2.953557 5e-06 -11.020526 -0.0 -6.111298 -15.895334 -3.840472 -1e-06 1e-06 -1e-06 -10.283371 -5.680289 -4.341839 11.028296 -11.302407 -2.372633 -1.384269 -14.238583 -6.320124 -0.625434 -26.924198 -3.827605 -4.378887 -49.963856 -3.318802 -13.708526 -7.363478 -3.720938 18.141153 -14.052741 -3.242678 9e-06 -18.787271 -2e-06 -0.429711 -8.456045 2.555501 1e-06 -0.0 1e-06 -15.923536 -20.094486 -5.473585 30.419222 -7.190829 1.735925 2e-06 -8.162927 -1e-06 -1.8619 -22.861473 -6.167948 1e-06 -3e-06 -4e-06 -173.979065 -3.89511 -1.498232 10.535976 0.00342 -0.075075 -84.066536 -3.26475 -6.909423 -3.856526 1.412751 2.190668 -0.999998 0.0 0.0 1.735413 -4.526368 -5.007268 16.372377 -0.056704 0.047514 -84.731728 -5.374868 -7.545406 -3.932202 0.649542 1.683358 -1.000002 -1e-06 0.0 
0.0 0.0 0.0 0.0 -0.0 0.0 -0.916976 99.055649 3.995508 90.214653 1.474136 90.281799 -4.013895 1.347077 0.285191 -12.672777 0.051927 1.223139 22.88809 -2.282252 -0.714135 24.169046 2.128872 2.34012 -2.7387 -0.825568 -0.313675 -40.572281 -1.474244 -0.177644 7e-06 -0.0 0.0 0.030318 0.017189 -0.049453 0.0497 -0.036848 -0.059576 0.049977 0.069495 -0.035322 -109.071396 -73.052567 125.190773 30.873346 -64.812576 -3.003469 27.130188 0.065071 -0.002435 -0.710577 0.708257 13.249267 17.636625 -26.322737 52.411198 -19.466661 -14.395597 29.410389 -0.0 -8.774821 -3e-06 16.415136 -18.058641 5.94506 -0.609777 -1.795654 -3.889327 -4.807088 -11.046813 -2.937849 4e-06 -20.976021 1e-06 -5.019972 -25.03356 -4.03188 8e-06 -3e-06 -0.0 -10.634535 -5.686971 -3.565587 10.573275 -17.922951 -3.113899 3e-06 -13.82121 1e-06 -0.501778 -31.181505 -4.027014 -10.955051 -59.463211 6.764515 -13.982713 -7.150198 -2.875042 13.77273 -8.401493 -3.218243 0.347732 -34.211555 0.771655 -0.963029 -17.733368 2.621021 0.0 -1e-06 0.0 -17.346416 -20.095215 -4.201779 21.757557 -1.638375 3.866426 2e-06 -6.338824 3e-06 -1.69759 -22.591743 -6.194005 1e-06 -3e-06 -3e-06 60.695938 -75.010704 137.582153 35.573784 -63.827332 -4.955845 30.785334 0.057089 0.081069 3.179976 7.787155 8.461863 22.182114 -20.375895 49.933319 -16.701811 -16.74353 28.476532 -3e-06 -12.690601 -1e-06 16.218077 -17.478189 2.670283 -0.105918 -1.513855 -4.275883 -5.03904 -5.612872 -2.953556 6e-06 -11.020525 -2e-06 -6.111297 -15.895334 -3.840472 0.0 1e-06 1e-06 -10.283371 -5.680289 -4.341838 11.028293 -11.302405 -2.372636 -1.384268 -14.23858 -6.320124 -0.625435 -26.924189 -3.827603 -4.411218 -49.979782 -3.293148 -13.708526 -7.363479 -3.72094 18.141148 -14.052741 -3.242675 8e-06 -18.787271 -2e-06 -0.429712 -8.456047 2.555505 1e-06 -0.0 1e-06 -15.923536 -20.094486 -5.473588 30.41921 -7.190827 1.735925 1e-06 -8.162927 -0.0 -1.861897 -22.861469 -6.167946 0.0 -3e-06 -2e-06 -173.954819 -3.89358 -1.524369 10.543307 -0.003429 -0.06952 -84.098686 -3.208716 -6.903114 -3.794353 1.401741 2.190336 -0.999998 -0.0 0.0 1.78324 -4.527909 -5.015399 16.37048 -0.05786 0.034654 -84.767563 -5.425869 -7.554193 -3.882286 0.644464 1.682927 -0.999999 -0.0 0.0 
